# xmcd CD database file
#
# Track frame offsets:
#	150
#	24307
#	45125
#	68597
#	109007
#	131535
#	155505
#	171050
#	187695
#	203452
#	228042
#
# Disc length: 3391 seconds
#
# Revision: 1
# Processed by: cddbd v1.5.2PL0 Copyright (c) Steve Scherf et al.
# Submitted via: CDex 1.51
#
DISCID=710d3d0b
DTITLE=Hikari no kuni, Kokage no hana - Sojiro
DYEAR=1995
DGENRE=New Age
TTITLE0=(Japanese Title)
TTITLE1=(Japanese Title)
TTITLE2=(Japanese Title)
TTITLE3=(Japanese Title)
TTITLE4=(Japanese Title)
TTITLE5=(Japanese Title)
TTITLE6=(Japanese Title)
TTITLE7=(Japanese Title)
TTITLE8=(Japanese Title)
TTITLE9=(Japanese Title)
TTITLE10=(Japanese Title)
EXTD=YEAR: 1995
EXTT0=
EXTT1=
EXTT2=
EXTT3=
EXTT4=
EXTT5=
EXTT6=
EXTT7=
EXTT8=
EXTT9=
EXTT10=
PLAYORDER=
